<?xml version="1.0" encoding="UTF-8"?>
<svg width="20px" height="20px" viewBox="0 0 20 20" version="1.1" xmlns="http://www.w3.org/2000/svg" xmlns:xlink="http://www.w3.org/1999/xlink">
    <!-- Generator: Sketch 61 (89581) - https://sketch.com -->
    <title>40x40@2x</title>
    <desc>Created with Sketch.</desc>
    <g id="40x40" stroke="none" stroke-width="1" fill="none" fill-rule="evenodd">
        <path d="M5,16.9731675 C5.16898723,16.9855546 5.25280978,16.9971079 5.33663233,16.9971079 C6.25489797,16.9979416 7.1731636,16.9922245 8.09130723,17 C8.29982649,17.001753 8.42074082,16.9324333 8.52823379,16.753655 C10.1378219,14.0786517 11.7552189,11.4081743 13.3715177,8.73710148 C13.4003126,8.68945905 13.4375264,8.64681907 13.4979226,8.56546962 C13.6277438,8.76461498 13.7479261,8.93993913 13.8590794,9.12050394 C14.6758307,10.4459164 15.4909958,11.7721625 16.3062829,13.0985278 C16.6364486,13.6356962 16.3514275,14.1424925 15.7073239,14.1468995 C14.5281956,14.1549987 13.3488234,14.1589292 12.1698171,14.1501153 C11.9351872,14.1484478 11.8096364,14.2256286 11.6934806,14.4246548 C11.2493553,15.1866955 10.7822916,15.9359918 10.325111,16.6908861 C10.2787463,16.7675905 10.2420205,16.8500119 10.177842,16.9743586 C10.3692795,16.983768 10.5095938,16.9966314 10.6497861,16.9967505 C12.8246579,16.9982989 14.9995297,17.0010384 17.1742795,16.9974652 C18.2800782,16.9955595 19.1093968,16.4961477 19.6360025,15.5692642 C20.1429642,14.6769215 20.1169755,13.7495616 19.5792667,12.8731791 C17.5987607,9.6450471 15.6038573,6.42525254 13.6137124,3.20283765 C13.5799149,3.14804885 13.5363565,3.09909626 13.4615629,3 C10.6402692,7.65895328 7.83837544,12.285867 5,16.9731675" id="Fill-1" fill="#2E62FF" opacity="0.43"></path>
        <path d="M0,16.9731718 C0.168988455,16.9855588 0.252811608,16.996993 0.336634762,16.9971121 C1.25490704,16.9979458 2.17317932,16.9921096 3.09132959,17 C3.29985036,17.0016381 3.42076557,16.9324375 3.52825931,16.7536592 C5.13785908,14.078655 6.75526771,11.4081769 8.37145621,8.7369841 C8.40037337,8.68946077 8.43758743,8.64682078 8.49786202,8.5654713 C8.62780621,8.76449762 8.74798933,8.93994092 8.85914347,9.12038668 C9.67590066,10.4457995 10.4910717,11.7721652 11.3063647,13.0985308 C11.6365328,13.6356994 11.3515097,14.1424959 10.7074013,14.1469028 C9.52814253,14.155002 8.34888375,14.1589325 7.16974698,14.1501187 C6.93511535,14.1484512 6.80956364,14.225632 6.69352897,14.4246583 C6.24927846,15.1866992 5.78221145,15.9359957 5.32514954,16.6908903 C5.27866246,16.7675946 5.24205846,16.850016 5.17787945,16.9743628 C5.36931836,16.9837722 5.50963368,16.9966357 5.64982699,16.9967548 C7.8247145,16.9983032 9.99960201,17.0010426 12.1743675,16.9974694 C13.2801743,16.9955637 14.1093768,16.4961518 14.6359863,15.569268 C15.1429517,14.676925 15.1169629,13.7495648 14.5793722,12.873063 C12.5988519,9.64493 10.603934,6.42525357 8.61377467,3.20283771 C8.57985497,3.1480489 8.53641823,3.09909629 8.46150205,3 C5.64030995,7.65883558 2.83839597,12.2858698 0,16.9731718" id="Fill-3" fill="#2E62FF"></path>
    </g>
</svg>