<?xml version="1.0" encoding="UTF-8"?>
<svg width="127px" height="27px" viewBox="0 0 127 27" version="1.1" xmlns="http://www.w3.org/2000/svg" xmlns:xlink="http://www.w3.org/1999/xlink">
    <!-- Generator: Sketch 61 (89581) - https://sketch.com -->
    <title>127x27@1x</title>
    <desc>Created with Sketch.</desc>
    <g id="127x27" stroke="none" stroke-width="1" fill="none" fill-rule="evenodd">
        <g id="编组" transform="translate(3.000000, 4.000000)" fill="#2E62FF">
            <path d="M5.6,18.2566608 C5.81553121,18.2728451 5.92244092,18.2879401 6.02935062,18.2879401 C7.20053323,18.2890294 8.37171583,18.2815597 9.54274281,18.2917188 C9.80869432,18.2940092 9.96291196,18.2034394 10.1000116,17.9698565 C12.1529269,14.4748272 14.2158019,10.9857115 16.2772762,7.49581764 C16.3140021,7.43357036 16.3614656,7.37785904 16.4384967,7.27157181 C16.6040744,7.53176545 16.7573584,7.76083544 16.8991265,7.99675264 C17.9408348,9.72847201 18.98052,11.4612807 20.0203609,13.194245 C20.4414637,13.8960831 20.0779396,14.5582386 19.2564311,14.5639965 C17.7525368,14.5745785 16.2483312,14.5797139 14.7445925,14.5681981 C14.4453387,14.5660195 14.2852076,14.6668601 14.137059,14.9268981 C13.5706088,15.9225434 12.9749023,16.9015375 12.3918009,17.8878457 C12.332666,17.9880638 12.2858249,18.0957516 12.2039697,18.258217 C12.4481347,18.2705108 12.6270956,18.2873176 12.8059009,18.2874732 C15.5797954,18.2894963 18.3536899,18.2930755 21.1274288,18.2884069 C22.5377965,18.285917 23.5955335,17.6334099 24.2671816,16.422389 C24.9137753,15.2564975 24.8806286,14.0448541 24.1948192,12.8998154 C21.6688245,8.68209521 19.1244669,4.4752683 16.5861783,0.265017801 C16.5430721,0.193433427 16.4875164,0.129474346 16.3921224,1.24344979e-14 C12.7937627,6.08716166 9.22014627,12.132462 5.6,18.2566608" id="Fill-1" opacity="0.43"></path>
            <path d="M2.48689958e-15,18.2566608 C0.215531212,18.2728451 0.322440918,18.2877845 0.429350624,18.2879401 C1.60053323,18.2890294 2.77171583,18.2814041 3.94274281,18.2917133 C4.20869432,18.2938536 4.36291196,18.2034394 4.5000116,17.9698565 C6.55292694,14.4748272 8.61580185,10.9857115 10.6771206,7.49566202 C10.7140021,7.43357036 10.7614656,7.37785904 10.838341,7.27157181 C11.0040744,7.53160983 11.1573584,7.76083544 11.2991265,7.99659702 C12.3408348,9.72831639 13.38052,11.4612807 14.4203609,13.194245 C14.8414637,13.8960831 14.4779396,14.5582386 13.6564311,14.5639965 C12.1523812,14.5745785 10.6483312,14.5797139 9.14443689,14.5681981 C8.84518308,14.5660195 8.68505195,14.6668601 8.53705904,14.9268981 C7.97045316,15.9225434 7.37474668,16.9015375 6.79180089,17.8878457 C6.73251035,17.9880638 6.68582489,18.0957516 6.60396971,18.258217 C6.84813468,18.2705108 7.02709561,18.2873176 7.20590093,18.2874732 C9.97979541,18.2894963 12.7536899,18.2930755 15.5274288,18.2884069 C16.9377965,18.285917 17.9953778,17.6334099 18.667026,16.422389 C19.3136197,15.2564975 19.280473,14.0448541 18.5948192,12.8996598 C16.0688245,8.68193959 13.5244669,4.4752683 10.9861783,0.265017801 C10.9429165,0.193433427 10.8875164,0.129474346 10.7919668,0 C7.19376271,6.08700604 3.62014627,12.132462 2.48689958e-15,18.2566608" id="Fill-3"></path>
        </g>
        <path d="M53.0361632,10.6965887 C54.4144246,10.6965887 55.5837769,11.2031516 56.5443996,12.2157273 C57.504843,13.2284863 57.985244,14.4423671 57.985244,15.8575529 C57.985244,17.2729222 57.5109399,18.4835029 56.5623317,19.4900284 C55.6135442,20.4967372 54.4411434,21 53.04495,21 C51.6487565,21 50.4733073,20.4967372 49.5187815,19.4900284 C48.5638971,18.4835029 48.0867239,17.2789723 48.0867239,15.8757034 C48.0867239,14.4482339 48.5669455,13.2284863 49.5277476,12.2157273 C50.4881909,11.2031516 51.6579019,10.6965887 53.0361632,10.6965887 Z M73.6740397,10.6966071 C75.0523011,10.6966071 76.2096389,11.1665023 77.1465912,12.1059261 C78.0831849,13.0455333 78.5696828,14.3265158 78.6053677,15.9490569 L70.049424,15.9490569 C70.0852882,17.12022 70.4459028,18.0627605 71.1323437,18.7764953 C71.8184259,19.4900467 72.6506547,19.8468224 73.6293888,19.8468224 C75.2402295,19.8468224 76.4454461,19.0724028 77.2450385,17.5228302 L78.2833072,18.0719274 C77.2568737,20.0239269 75.7414318,20.999835 73.7368021,20.999835 C72.3047445,20.999835 71.1233776,20.4965722 70.1925222,19.4900467 C69.2618461,18.4835212 68.7965081,17.2727572 68.7965081,15.8575713 C68.7965081,14.4423854 69.2647153,13.2285046 70.2016676,12.2155623 C71.1382613,11.2031699 72.2957784,10.6966071 73.6740397,10.6966071 Z M102,7.20132344 L102,20.6704316 L100.800701,20.6704316 L100.800701,19.0051728 C99.7145536,20.3351065 98.4706037,20.99989 97.068672,20.99989 C95.6662024,20.99989 94.487884,20.4936938 93.5333582,19.4809348 C92.5786531,18.4685425 92.1014799,17.2546617 92.1014799,15.8391091 C92.1014799,14.4239232 92.58475,13.2131592 93.5512903,12.2064504 C94.5178306,11.1999248 95.6751684,10.6966621 97.0238418,10.6966621 C98.5749686,10.6966621 99.8339814,11.3737292 100.800701,12.7280469 L100.800701,7.20132344 L102,7.20132344 Z M40.3901044,7 L46.3864199,20.6704133 L45.0081586,20.6704133 L42.9855968,16.186883 L37.4366873,16.186883 L35.4320576,20.6704133 L34,20.6704133 L40.0680439,7 L40.3901044,7 Z M62.1201535,7.53067179 L62.1201535,19.407673 L67.0604475,19.407673 L67.0604475,20.670505 L60.8134413,20.670505 L60.8134413,7.53067179 L62.1201535,7.53067179 Z M86.033705,10.6967354 C86.7497338,10.6967354 87.3940342,10.8952904 87.9669648,11.2914838 C88.5397162,11.6880439 88.945161,12.2065237 89.1840166,12.8469233 C89.4226929,13.4875062 89.5421207,14.4300467 89.5421207,15.674545 L89.5421207,20.670505 L88.3248896,20.670505 L88.3248896,16.0404876 C88.3248896,14.9059921 88.2739624,14.137256 88.1728254,13.7346458 C88.0711504,13.3320356 87.9160377,12.9904769 87.707308,12.7097865 C87.498399,12.4292793 87.2330039,12.2156906 86.9109434,12.0692035 C86.5887035,11.9228998 86.1976044,11.849748 85.7383633,11.849748 C85.2789428,11.849748 84.8283091,11.9656176 84.3870001,12.1973568 C83.9453324,12.4292793 83.5694756,12.7525042 83.2592502,13.1672147 C82.9488455,13.5822919 82.7402952,14.0091027 82.6328819,14.4481972 C82.5254686,14.887475 82.4716723,15.7722641 82.4716723,17.1018312 L82.4716723,20.670505 L81.2366884,20.670505 L81.2366884,10.9528586 L82.4716723,10.9528586 L82.4716723,12.6914527 C83.4500478,11.3617023 84.6375115,10.6967354 86.033705,10.6967354 Z M97.113323,11.9044927 C96.0393694,11.9044927 95.1413297,12.297936 94.4193833,13.0848226 C93.6972576,13.8717092 93.3364637,14.7992161 93.3364637,15.8666098 C93.3364637,16.9341869 93.7062237,17.8646272 94.4462815,18.6575639 C95.18616,19.450684 96.0601706,19.8468774 97.068672,19.8468774 C98.0768148,19.8468774 98.9628399,19.4717679 99.7267475,18.7213656 C100.490296,17.9711465 100.87225,17.0227391 100.87225,15.8757767 C100.87225,14.7656652 100.514146,13.8260581 99.7982966,13.0575053 C99.0822677,12.2889524 98.1872765,11.9044927 97.113323,11.9044927 Z M53.0361632,11.9229365 C52.0274825,11.9229365 51.1593895,12.3161965 50.4317048,13.1030831 C49.7036615,13.890153 49.3398191,14.8266435 49.3398191,15.912371 C49.3398191,16.9982819 49.691647,17.9193719 50.3958406,18.6758244 C51.0998549,19.4324603 51.9738655,19.8103198 53.0182311,19.8103198 C54.0622381,19.8103198 54.9452148,19.4291602 55.6673405,18.6666575 C56.3891076,17.9043382 56.7502601,16.9801314 56.7502601,15.8940372 C56.7502601,14.8207766 56.3833693,13.890153 55.6494084,13.1030831 C54.9156268,12.3161965 54.044306,11.9229365 53.0361632,11.9229365 Z M73.6830058,11.9044377 C71.8930234,11.9044377 70.7234917,12.8928128 70.1747694,14.8691962 L77.2450385,14.8691962 C77.077732,13.942056 76.6602726,13.2160376 75.9921225,12.6915077 C75.3236138,12.1669777 74.553968,11.9044377 73.6830058,11.9044377 Z M40.2290742,9.90975712 L38.0273707,14.8508991 L42.4128455,14.8508991 L40.2290742,9.90975712 Z" id="形状结合" fill="#FFFFFF"></path>
    </g>
</svg>